# xmcd
#
# Track frame offsets:
# 150
# 18527
# 37782
# 54247
# 83295
# 98665
# 110487
# 134705
# 153675
# 170105
# 187597
# 207210
#
# Disc length: 2957 seconds
#
#
# Revision: 5
# Processed by: cddbd v1.5.2PL0 Copyright (c) Steve Scherf et al.
# Submitted via: FreeRIP 2.951 
#
DISCID=900b8b0c
DTITLE=Joan Manuel Serrat - Serrat en directo vol.2
DYEAR=1986
DGENRE=Folk
TTITLE0=Temps era temps
TTITLE1=Sinceramente tuyo
TTITLE2=Cambalache
TTITLE3=La Tieta
TTITLE4=El Titiritero
TTITLE5=La Saeta
TTITLE6=Cada loco con su tema
TTITLE7=Esos locos bajitos
TTITLE8=Fiesta
TTITLE9=Paraules d'amor
TTITLE10=Penelope
TTITLE11=Lucia
EXTD=YEAR: 1986
EXTT0=
EXTT1=
EXTT2=
EXTT3=
EXTT4=
EXTT5=
EXTT6=
EXTT7=
EXTT8=
EXTT9=
EXTT10=
EXTT11=
PLAYORDER=
